<?xml version="1.0" encoding="UTF-8"?><svg id="Calque_1" xmlns="http://www.w3.org/2000/svg" viewBox="0 0 600 217.2"><defs><style>.cls-1,.cls-2{fill:#232a89;}.cls-2{stroke:#232a89;stroke-miterlimit:10;stroke-width:2px;}</style></defs><g><path class="cls-1" d="M229.94,78.65c-1.12-1.53-2.35-2.71-3.69-3.53-1.34-.82-2.82-1.45-4.42-1.88-1.6-.44-3.21-.65-4.81-.65-2.65,0-4.97,.31-6.95,.92-1.99,.61-3.63,1.44-4.94,2.48s-2.29,2.27-2.95,3.66c-.66,1.39-.99,2.86-.99,4.39,0,2.3,.41,4.16,1.23,5.57,.82,1.41,1.86,2.54,3.11,3.4,1.26,.85,2.64,1.53,4.16,2.01,1.52,.49,2.97,.98,4.37,1.46l10.56,3.45c3.17,1.01,5.97,2.16,8.39,3.45,2.42,1.29,4.45,2.82,6.09,4.58,1.64,1.76,2.88,3.79,3.74,6.09,.85,2.3,1.28,4.97,1.28,8,0,3.28-.67,6.31-2.01,9.1-1.34,2.79-3.22,5.21-5.62,7.27-2.41,2.06-5.27,3.67-8.6,4.84-3.33,1.17-6.98,1.75-10.96,1.75s-7.57-.46-10.46-1.39c-2.89-.92-5.33-2.16-7.29-3.71-1.97-1.55-3.55-3.32-4.73-5.31-1.19-1.99-2.11-4.03-2.77-6.12h-3.97v-8.99h13.18c0,3.87,.41,6.61,1.23,8.21,.82,1.6,1.96,2.94,3.43,4,1.46,1.06,3.21,1.87,5.23,2.41,2.02,.54,4.25,.81,6.69,.81s4.51-.28,6.41-.84c1.9-.56,3.52-1.37,4.86-2.43,1.34-1.06,2.37-2.35,3.09-3.87,.71-1.52,1.07-3.23,1.07-5.15,0-2.13-.44-3.93-1.33-5.41-.89-1.48-2.03-2.75-3.43-3.79-1.39-1.05-2.92-1.9-4.58-2.56-1.66-.66-3.25-1.24-4.78-1.73l-11.45-3.24c-2.51-.77-4.8-1.74-6.88-2.93-2.07-1.18-3.85-2.63-5.33-4.34-1.48-1.71-2.62-3.7-3.43-5.99-.8-2.28-1.2-4.92-1.2-7.92s.59-5.87,1.78-8.52c1.18-2.65,2.93-4.97,5.23-6.95s5.12-3.55,8.45-4.68c3.33-1.13,7.14-1.7,11.43-1.7,2.82,0,5.43,.33,7.82,.99,2.39,.66,4.55,1.59,6.48,2.8s3.64,2.65,5.12,4.34c1.48,1.69,2.73,3.55,3.74,5.57h3.92v8.99h-12.81c0-3.07-.56-5.37-1.67-6.9Z"/><path class="cls-1" d="M251.28,116.2c.03-4.29,.72-8.19,2.07-11.71,1.34-3.52,3.22-6.54,5.62-9.07,2.41-2.53,5.26-4.47,8.58-5.83,3.31-1.36,6.95-2.04,10.93-2.04s7.68,.68,11.01,2.04c3.33,1.36,6.18,3.29,8.55,5.78,2.37,2.49,4.22,5.5,5.54,9.02,1.32,3.52,1.99,7.43,1.99,11.71s-.66,8.1-1.99,11.64c-1.33,3.54-3.17,6.58-5.54,9.13-2.37,2.54-5.22,4.52-8.55,5.94-3.33,1.41-7,2.12-11.01,2.12s-7.77-.7-11.09-2.09c-3.31-1.39-6.15-3.35-8.52-5.88-2.37-2.53-4.22-5.55-5.54-9.07-1.33-3.52-2.01-7.41-2.04-11.66Zm10.3,0c0,3.1,.44,5.91,1.33,8.42s2.11,4.65,3.66,6.41c1.55,1.76,3.35,3.12,5.39,4.08,2.04,.96,4.21,1.44,6.51,1.44s4.65-.47,6.72-1.41c2.07-.94,3.88-2.29,5.41-4.05,1.53-1.76,2.74-3.9,3.61-6.41,.87-2.51,1.31-5.33,1.31-8.47s-.44-6.19-1.31-8.73c-.87-2.54-2.07-4.67-3.58-6.38-1.52-1.71-3.32-3-5.41-3.87-2.09-.87-4.34-1.31-6.75-1.31s-4.47,.44-6.51,1.31c-2.04,.87-3.84,2.16-5.39,3.87-1.55,1.71-2.77,3.84-3.66,6.38-.89,2.54-1.33,5.46-1.33,8.73Z"/><path class="cls-1" d="M315.65,61.92h17.57v72.37h8.16v8.99h-25.73v-8.99h7.84v-63.38h-7.84v-8.99Z"/><path class="cls-1" d="M383.53,89.11h17.47v45.18h6.01v8.99h-15.79v-5.02c-2.44,1.88-5.1,3.35-7.97,4.39-2.88,1.05-5.95,1.57-9.23,1.57-2.72,0-5.19-.39-7.4-1.18-2.21-.78-4.1-2-5.65-3.66-1.55-1.66-2.75-3.76-3.58-6.3-.84-2.54-1.26-5.58-1.26-9.1v-25.89h-7.32v-8.99h17.47v33.73c0,4.15,.96,7.29,2.88,9.41,1.92,2.13,4.67,3.19,8.26,3.19,2.13,0,4.37-.38,6.72-1.15,2.35-.77,4.58-1.83,6.67-3.19v-33h-7.27v-8.99Z"/><path class="cls-1" d="M437.18,89.11h12.71v7.9h-12.81l-.16,31.27c0,2.13,.24,3.85,.73,5.18,.49,1.33,1.27,2.24,2.35,2.75,1.08,.51,2.3,.76,3.66,.76,1.46,0,2.75-.13,3.87-.39,1.12-.26,2.34-.71,3.66-1.33l2.25,6.54c-1.67,.87-3.43,1.56-5.28,2.07-1.85,.5-4.03,.76-6.54,.76-2.37,0-4.44-.29-6.2-.86-1.76-.58-3.24-1.54-4.44-2.9s-2.1-3.18-2.69-5.46c-.59-2.28-.89-5.13-.89-8.55l.16-29.81h-8.63v-7.9h8.73v-12.97l9.52-4.5v17.47Z"/><path class="cls-1" d="M457.73,89.11h20.55v8.99h-6.43l12.71,34.57,13.28-34.57h-6.38v-8.99h20.55v8.99h-5.6l-24.11,60.82h7.43v8.99h-21.86v-8.99h6.59l5.75-14.9-18.09-45.91h-4.39v-8.99Z"/><path class="cls-1" d="M522.1,116.2c.03-4.29,.72-8.19,2.07-11.71,1.34-3.52,3.22-6.54,5.62-9.07,2.41-2.53,5.26-4.47,8.58-5.83,3.31-1.36,6.95-2.04,10.93-2.04s7.68,.68,11.01,2.04,6.18,3.29,8.55,5.78c2.37,2.49,4.22,5.5,5.54,9.02,1.32,3.52,1.99,7.43,1.99,11.71s-.66,8.1-1.99,11.64c-1.32,3.54-3.17,6.58-5.54,9.13-2.37,2.54-5.22,4.52-8.55,5.94-3.33,1.41-7,2.12-11.01,2.12s-7.77-.7-11.09-2.09c-3.31-1.39-6.15-3.35-8.52-5.88-2.37-2.53-4.22-5.55-5.54-9.07-1.33-3.52-2.01-7.41-2.04-11.66Zm10.3,0c0,3.1,.44,5.91,1.33,8.42s2.11,4.65,3.66,6.41c1.55,1.76,3.35,3.12,5.39,4.08,2.04,.96,4.21,1.44,6.51,1.44s4.65-.47,6.72-1.41c2.07-.94,3.88-2.29,5.41-4.05,1.53-1.76,2.74-3.9,3.61-6.41s1.31-5.33,1.31-8.47-.44-6.19-1.31-8.73c-.87-2.54-2.07-4.67-3.58-6.38-1.52-1.71-3.32-3-5.41-3.87-2.09-.87-4.34-1.31-6.75-1.31s-4.47,.44-6.51,1.31c-2.04,.87-3.84,2.16-5.39,3.87-1.55,1.71-2.77,3.84-3.66,6.38-.89,2.54-1.33,5.46-1.33,8.73Z"/></g><g><path class="cls-2" d="M106.72,44.15c-8.75,0-15.99,6.47-17.25,14.87h-28.98c-.85-1.27-2.29-2.11-3.93-2.11-2.61,0-4.72,2.11-4.72,4.72s2.11,4.72,4.72,4.72c1.64,0,3.08-.84,3.93-2.11h34.05v-2.08c0-.16,.01-.32,.01-.53,0-6.71,5.46-12.17,12.17-12.17s12.17,5.46,12.17,12.17c0,1.72-.36,3.36-1.01,4.84h.01c-.1,.28-.16,.57-.16,.88,0,1.44,1.19,2.62,2.65,2.62,1.11,0,2.05-.67,2.45-1.62h0c.87-2.07,1.35-4.34,1.35-6.72,0-9.63-7.84-17.47-17.47-17.47Z"/><path class="cls-2" d="M57.47,165.53c8.75,0,15.99-6.47,17.25-14.87h28.98c.85,1.27,2.29,2.11,3.93,2.11,2.61,0,4.72-2.11,4.72-4.72s-2.11-4.72-4.72-4.72c-1.64,0-3.08,.84-3.93,2.11h-34.05v2.08c0,.16-.01,.32-.01,.53,0,6.71-5.46,12.17-12.17,12.17s-12.17-5.46-12.17-12.17c0-1.72,.36-3.36,1.01-4.84h-.01c.1-.28,.16-.57,.16-.88,0-1.44-1.19-2.62-2.65-2.62-1.11,0-2.05,.67-2.45,1.62h0c-.87,2.07-1.35,4.34-1.35,6.72,0,9.63,7.84,17.47,17.47,17.47Z"/><path class="cls-2" d="M42.32,52.9c-4.36,7.58-2.37,17.08,4.28,22.37l-14.45,25.12c-1.52,.1-2.97,.93-3.79,2.35-1.3,2.26-.52,5.14,1.74,6.44s5.14,.52,6.44-1.74c.82-1.42,.81-3.09,.13-4.46l16.98-29.52-1.81-1.04c-.13-.08-.27-.17-.45-.28-5.82-3.35-7.83-10.8-4.48-16.62,3.35-5.82,10.8-7.82,16.62-4.48,1.49,.86,2.73,1.99,3.69,3.29h.01c.19,.22,.41,.42,.68,.57,1.25,.72,2.86,.28,3.59-.99,.55-.96,.44-2.11-.18-2.93h0c-1.36-1.79-3.09-3.34-5.16-4.53-8.35-4.8-19.05-1.92-23.85,6.43Z"/><path class="cls-2" d="M122.48,156.77c4.36-7.58,2.37-17.08-4.28-22.37l14.45-25.12c1.52-.1,2.97-.93,3.79-2.35,1.3-2.26,.52-5.14-1.74-6.44s-5.14-.52-6.44,1.74c-.82,1.42-.81,3.09-.13,4.46l-16.98,29.52,1.81,1.04c.13,.08,.27,.17,.45,.28,5.82,3.35,7.83,10.8,4.48,16.62s-10.8,7.82-16.62,4.48c-1.49-.86-2.73-1.99-3.69-3.29h-.01c-.19-.22-.41-.42-.68-.57-1.25-.72-2.86-.28-3.59,.99-.55,.96-.44,2.11,.18,2.93h0c1.36,1.79,3.09,3.34,5.16,4.53,8.35,4.8,19.05,1.92,23.85-6.43Z"/><path class="cls-2" d="M17.99,113.97c4.39,7.56,13.62,10.58,21.52,7.45l14.56,25.06c-.67,1.37-.68,3.04,.15,4.46,1.31,2.25,4.2,3.02,6.45,1.71s3.02-4.2,1.71-6.45c-.82-1.42-2.27-2.25-3.8-2.34l-17.1-29.45-1.8,1.05c-.14,.07-.29,.15-.47,.26-5.8,3.37-13.27,1.39-16.64-4.41s-1.39-13.26,4.41-16.63c1.49-.86,3.09-1.37,4.69-1.56h0c.29-.07,.58-.16,.84-.31,1.25-.73,1.67-2.34,.93-3.61-.56-.96-1.61-1.44-2.63-1.3h0c-2.23,.28-4.43,1-6.49,2.2-8.33,4.84-11.17,15.55-6.33,23.88Z"/><path class="cls-2" d="M147.52,95.17c-4.39-7.56-13.62-10.58-21.52-7.45l-14.56-25.06c.67-1.37,.68-3.04-.15-4.46-1.31-2.25-4.2-3.02-6.45-1.71s-3.02,4.2-1.71,6.45c.82,1.42,2.27,2.25,3.8,2.34l17.1,29.45,1.8-1.05c.14-.07,.29-.15,.47-.26,5.8-3.37,13.27-1.39,16.64,4.41s1.39,13.26-4.41,16.63c-1.49,.86-3.09,1.37-4.69,1.56h0c-.29,.07-.58,.16-.84,.31-1.25,.73-1.67,2.34-.93,3.61,.56,.96,1.61,1.44,2.63,1.3h0c2.23-.28,4.43-1,6.49-2.2,8.33-4.84,11.17-15.55,6.33-23.88Z"/></g></svg>